<?xml version="1.0" encoding="utf-8"?>
<!-- Generator: Adobe Illustrator 21.0.0, SVG Export Plug-In . SVG Version: 6.00 Build 0)  -->
<svg version="1.1" id="Layer_1" xmlns="http://www.w3.org/2000/svg" xmlns:xlink="http://www.w3.org/1999/xlink" x="0px" y="0px"
	 viewBox="0 0 548.4 108" style="enable-background:new 0 0 548.4 108;" xml:space="preserve">
<style type="text/css">
	.st0{fill:#7CC24D;}
	.st1{fill:#3BC1CD;}
	.st2{fill:#6A6F6F;}
</style>
<g>
	<path class="st0" d="M77.3,43.2c0.5-0.7,1-1.3,1.5-2c1-1.3,1.7-2.7,2.3-4c-6-7.6-12.3-14.3-17.7-19.6c-2,0.6-4.2,1.6-6.4,3.1
		C63,26.4,70.5,34.3,77.3,43.2"/>
	<path class="st0" d="M19.5,66.3c-4.7-3.7-7.2-10.4-4.3-17.3c-1-1.3-2-2.6-3-3.9c-0.5-0.7-1-1.4-1.4-2.1C4,53.9,7.8,65.6,15.3,71.5
		c3.5,2.8,8.1,4.5,13,4.5c3.2,0,6.5-0.7,9.9-2.2c-1.6-1.5-3.4-3.2-5.3-5.1C27.5,70.3,22.7,68.9,19.5,66.3"/>
	<path class="st0" d="M85.6,43.2c-0.4,0.7-0.8,1.3-1.3,1.9c-1,1.4-2.1,2.7-3.1,4.1c2.8,6.8,0.3,13.5-4.4,17.1
		c-3.2,2.5-7.9,3.9-13.3,2.4c-2.1-0.6-4.2-1.6-6.4-3.1c-2.1-1.4-4.2-3.4-6.4-5.8c-0.1-0.1-0.1-0.2-0.2-0.2c-0.3-0.3-0.6-0.5-0.9-0.7
		c-0.5-0.2-0.9-0.3-1.4-0.3h0c-0.5,0-1,0.1-1.4,0.3c-0.3,0.2-0.7,0.4-0.9,0.7c-0.1,0.1-0.1,0.2-0.2,0.2c-2.1,2.4-4.2,4.3-6.3,5.8
		c1.8,1.8,3.5,3.3,4.9,4.7c1.3-1,2.6-2.1,3.9-3.4c1.3,1.3,2.7,2.5,4,3.5c2,1.5,4,2.7,6,3.6c8.7,3.9,17,2.2,22.8-2.3
		C90.7,63.8,90.6,51.7,85.6,43.2"/>
	<path class="st0" d="M50.3,5.5c-0.2-0.2-0.5-0.4-0.8-0.5c-0.5-0.2-0.9-0.3-1.4-0.3h0c-0.5,0-1,0.1-1.4,0.3
		c-0.3,0.1-0.5,0.3-0.8,0.5c-0.8,0.7-3.7,3.1-7.7,6.9c-1.6,1.5-3.4,3.2-5.3,5.1c-5.4,5.3-11.7,12-17.6,19.6c0.6,1.4,1.3,2.8,2.3,4.1
		c0.5,0.6,1,1.3,1.5,1.9c6.8-8.9,14.3-16.7,20.2-22.5c1.8-1.8,3.5-3.3,4.9-4.7c1.6-1.4,2.9-2.6,4-3.5c1,0.9,2.4,2.1,4,3.6
		c2-1.5,4-2.7,6-3.6C54.1,8.6,51.1,6.1,50.3,5.5"/>
</g>
<g>
	<path class="st1" d="M52.2,70.3c-1.6,1.4-2.9,2.6-4,3.5c-1-0.9-2.4-2.1-4-3.6c-1.5-1.3-3.1-2.9-4.9-4.7c-6-5.8-13.4-13.6-20.3-22.5
		c-0.5-0.6-1-1.3-1.5-1.9c-1-1.4-1.8-2.7-2.3-4.1c-2.8-6.8-0.3-13.5,4.4-17.1c3.2-2.5,7.9-3.9,13.3-2.4c1.9-1.9,3.7-3.6,5.3-5.1
		c-8.7-3.9-17-2.2-22.8,2.3C5.6,22.4,5.7,34.5,10.8,43c0.4,0.7,0.9,1.4,1.4,2.1c1,1.3,2,2.7,3,3.9c6,7.6,12.3,14.3,17.7,19.6
		c1.9,1.9,3.7,3.6,5.3,5.1c4.1,3.8,7,6.3,7.8,6.9c0.2,0.2,0.5,0.4,0.8,0.5c0.5,0.2,0.9,0.3,1.4,0.3h0c0.5,0,1-0.1,1.4-0.3
		c0.3-0.1,0.5-0.3,0.8-0.5c0.8-0.7,3.7-3.1,7.7-6.9C56.2,73,54.2,71.8,52.2,70.3"/>
	<path class="st1" d="M81,14.7c-3.5-2.8-8.1-4.5-13-4.5c-3.2,0-6.5,0.7-9.9,2.2c-2,0.9-3.9,2.1-5.9,3.5l0,0c0,0,0,0,0,0c0,0,0,0,0,0
		l0,0c-1.3,1-2.7,2.2-4,3.4c-1.3-1.3-2.7-2.5-4-3.5c-1.5,1.3-3.1,2.9-4.9,4.7c2.1,1.4,4.2,3.4,6.4,5.8c0.1,0.1,0.1,0.2,0.2,0.2
		c0.3,0.3,0.6,0.5,0.9,0.7c0.5,0.2,0.9,0.3,1.4,0.3h0c0.5,0,1-0.1,1.4-0.3c0.3-0.2,0.7-0.4,0.9-0.7c0.1-0.1,0.1-0.2,0.2-0.2
		c2.1-2.4,4.2-4.3,6.3-5.8c-0.1-0.1-0.3-0.3-0.4-0.4c0.1,0.1,0.3,0.3,0.4,0.4c2.2-1.5,4.3-2.5,6.4-3.1c5.4-1.6,10.2-0.2,13.4,2.4
		c4.7,3.7,7.2,10.4,4.3,17.3c-0.6,1.3-1.3,2.7-2.3,4c-0.5,0.7-1,1.3-1.5,2C70.5,52,63,59.9,57.1,65.6c2.2,1.5,4.3,2.5,6.4,3.1
		c5.4-5.3,11.7-12,17.6-19.6c1.1-1.3,2.1-2.7,3.1-4.1c0.5-0.6,0.9-1.3,1.3-1.9C92.3,32.3,88.5,20.6,81,14.7"/>
</g>
<g>
	<path class="st2" d="M133.3,28.8c-0.9-1.2-2.2-2.2-3.9-3c-1.7-0.8-3.4-1.2-5.1-1.2c-1,0-2,0.1-3.1,0.4c-1,0.3-2,0.6-2.8,1.2
		c-0.8,0.5-1.5,1.2-2.1,2.1c-0.5,0.9-0.8,1.9-0.8,3.1c0,1.1,0.2,2.1,0.7,2.9c0.5,0.8,1.1,1.5,1.9,2c0.8,0.6,1.8,1,3,1.5
		c1.2,0.4,2.4,0.8,3.8,1.3c1.6,0.5,3.2,1.1,4.9,1.7c1.7,0.7,3.2,1.5,4.7,2.6c1.4,1.1,2.6,2.4,3.5,4c0.9,1.6,1.4,3.6,1.4,6.1
		c0,2.6-0.5,5-1.5,6.9c-1,2-2.3,3.6-3.9,4.9c-1.6,1.3-3.5,2.3-5.7,2.9c-2.2,0.6-4.5,1-6.9,1c-3.2,0-6.3-0.6-9.4-1.8
		c-3.1-1.2-5.6-2.9-7.5-5.3l6.3-5.8c1.2,1.7,2.8,3,4.8,4c2,1,4,1.5,6,1.5c1,0,2.1-0.1,3.1-0.4c1.1-0.3,2-0.7,2.9-1.3
		c0.9-0.6,1.6-1.4,2.1-2.3c0.5-0.9,0.8-2,0.8-3.4c0-1.3-0.3-2.4-0.9-3.2c-0.6-0.9-1.4-1.6-2.4-2.2c-1-0.6-2.2-1.2-3.6-1.6
		c-1.4-0.5-2.9-1-4.4-1.5c-1.5-0.5-3-1-4.5-1.7c-1.5-0.6-2.8-1.5-4-2.6c-1.2-1.1-2.1-2.4-2.9-3.9c-0.7-1.6-1.1-3.5-1.1-5.8
		c0-2.5,0.5-4.7,1.6-6.5c1-1.8,2.4-3.3,4.1-4.5c1.7-1.2,3.6-2.1,5.8-2.6c2.2-0.6,4.4-0.9,6.6-0.9c2.5,0,5,0.4,7.6,1.3
		c2.6,0.9,4.8,2.2,6.7,4L133.3,28.8z"/>
	<polygon class="st2" points="149,18.5 181.6,18.5 181.6,26.1 157.8,26.1 157.8,38.6 180.4,38.6 180.4,46 157.8,46 157.8,60 
		182.9,60 182.9,67.8 149,67.8 	"/>
	<polygon class="st2" points="193.5,18.5 205.1,18.5 228,55.4 228.2,55.4 228.2,18.5 237,18.5 237,67.8 225.8,67.8 202.4,29.7 
		202.3,29.7 202.3,67.8 193.5,67.8 	"/>
	<rect x="248.4" y="18.5" class="st2" width="8.8" height="49.3"/>
	<path class="st2" d="M266.5,43c0-3.9,0.7-7.5,2-10.7c1.3-3.2,3.2-5.9,5.5-8.1c2.3-2.2,5.1-3.9,8.4-5.2c3.2-1.2,6.7-1.8,10.5-1.8
		c3.9,0,7.4,0.6,10.7,1.8c3.2,1.2,6.1,2.9,8.4,5.2c2.4,2.2,4.2,4.9,5.5,8.1c1.3,3.2,2,6.7,2,10.7c0,3.9-0.7,7.4-2,10.5
		c-1.3,3.2-3.2,5.9-5.5,8.2c-2.4,2.3-5.2,4.1-8.4,5.4c-3.2,1.3-6.8,1.9-10.7,1.9c-3.8,0-7.3-0.6-10.5-1.9c-3.2-1.3-6-3.1-8.4-5.4
		c-2.3-2.3-4.2-5-5.5-8.2C267.1,50.3,266.5,46.8,266.5,43 M276,43c0,2.6,0.4,5.1,1.2,7.3c0.8,2.2,2,4.1,3.5,5.7
		c1.5,1.6,3.3,2.9,5.4,3.8c2.1,0.9,4.3,1.4,6.9,1.4c2.5,0,4.8-0.5,6.9-1.4c2.1-0.9,3.9-2.2,5.4-3.8c1.5-1.6,2.7-3.5,3.5-5.7
		c0.8-2.2,1.2-4.6,1.2-7.3c0-2.5-0.4-4.9-1.2-7.1c-0.8-2.2-2-4.1-3.4-5.7c-1.5-1.6-3.3-2.9-5.4-3.8c-2.1-0.9-4.4-1.4-7-1.4
		c-2.6,0-4.9,0.5-6.9,1.4c-2.1,0.9-3.8,2.2-5.3,3.8c-1.5,1.6-2.6,3.5-3.4,5.7C276.4,38,276,40.4,276,43"/>
	<path class="st2" d="M328.8,18.5h17.1c2.3,0,4.6,0.2,6.8,0.7c2.2,0.5,4.1,1.3,5.8,2.4c1.7,1.1,3.1,2.6,4.1,4.4c1,1.8,1.5,4,1.5,6.6
		c0,3.6-1,6.5-3,8.7c-2,2.3-4.8,3.8-8.2,4.6L366,67.8h-10.6L344,46.9h-6.4v20.9h-8.8V18.5z M344.7,39.7c1.2,0,2.5-0.1,3.8-0.3
		c1.2-0.2,2.4-0.5,3.4-1c1-0.5,1.8-1.2,2.5-2.2c0.7-1,1-2.2,1-3.7c0-1.3-0.3-2.4-0.9-3.3c-0.6-0.9-1.4-1.5-2.3-2.1
		c-0.9-0.5-2-0.9-3.2-1c-1.2-0.2-2.3-0.3-3.4-0.3h-7.9v13.9H344.7z"/>
	<polygon class="st2" points="374.6,18.5 383.4,18.5 383.4,60 404.4,60 404.4,67.8 374.6,67.8 	"/>
	<rect x="413.6" y="18.5" class="st2" width="8.8" height="49.3"/>
	<polygon class="st2" points="433.7,18.5 445.4,18.5 468.3,55.4 468.4,55.4 468.4,18.5 477.2,18.5 477.2,67.8 466,67.8 442.6,29.7 
		442.5,29.7 442.5,67.8 433.7,67.8 	"/>
	<polygon class="st2" points="488.5,18.5 497.3,18.5 497.3,39.8 497.5,39.8 518.1,18.5 529.9,18.5 506.9,41.2 531.5,67.8 
		519.2,67.8 497.5,43 497.3,43 497.3,67.8 488.5,67.8 	"/>
	<path class="st2" d="M243.5,87.8c-0.3-0.4-0.6-0.7-1.1-0.9c-0.5-0.2-1-0.4-1.5-0.4c-0.3,0-0.6,0-0.9,0.1c-0.3,0.1-0.6,0.2-0.8,0.4
		c-0.3,0.2-0.5,0.4-0.6,0.7c-0.2,0.3-0.2,0.6-0.2,1c0,0.4,0.1,0.7,0.2,0.9c0.1,0.2,0.3,0.5,0.6,0.6c0.2,0.2,0.5,0.3,0.9,0.4
		c0.3,0.1,0.7,0.2,1.1,0.4c0.5,0.1,0.9,0.3,1.4,0.5c0.5,0.2,0.9,0.4,1.3,0.7c0.4,0.3,0.7,0.7,0.9,1.1c0.2,0.4,0.4,1,0.4,1.7
		c0,0.7-0.1,1.3-0.4,1.8c-0.3,0.5-0.6,0.9-1,1.3c-0.4,0.3-0.9,0.6-1.5,0.8c-0.6,0.2-1.1,0.2-1.7,0.2c-0.9,0-1.7-0.2-2.5-0.5
		c-0.8-0.3-1.5-0.8-2-1.5l1.5-1.2c0.3,0.5,0.7,0.9,1.3,1.1c0.5,0.3,1.1,0.4,1.7,0.4c0.3,0,0.6,0,1-0.1c0.3-0.1,0.6-0.2,0.9-0.4
		c0.3-0.2,0.5-0.4,0.6-0.7c0.2-0.3,0.2-0.6,0.2-1c0-0.4-0.1-0.7-0.3-1c-0.2-0.3-0.4-0.5-0.7-0.7c-0.3-0.2-0.6-0.4-1-0.5
		c-0.4-0.1-0.8-0.3-1.2-0.4c-0.4-0.1-0.9-0.3-1.3-0.5c-0.4-0.2-0.8-0.4-1.1-0.7c-0.3-0.3-0.6-0.6-0.8-1.1c-0.2-0.4-0.3-0.9-0.3-1.6
		c0-0.7,0.1-1.3,0.4-1.7c0.3-0.5,0.6-0.9,1.1-1.2c0.4-0.3,0.9-0.5,1.5-0.7c0.6-0.1,1.1-0.2,1.7-0.2c0.8,0,1.5,0.1,2.2,0.4
		c0.7,0.3,1.2,0.7,1.7,1.1L243.5,87.8z"/>
	<path class="st2" d="M251.7,91.2h-2.4v4.7c0,0.5,0.1,0.9,0.3,1.2c0.2,0.2,0.5,0.4,1,0.4c0.2,0,0.3,0,0.5-0.1c0.2,0,0.4-0.1,0.5-0.2
		l0.1,1.5c-0.2,0.1-0.5,0.1-0.7,0.2c-0.3,0-0.5,0.1-0.8,0.1c-0.9,0-1.5-0.2-2-0.7c-0.5-0.5-0.7-1.2-0.7-2.1v-4.9h-1.7v-1.5h1.7v-2.6
		h1.8v2.6h2.4V91.2z"/>
	<path class="st2" d="M259.4,92.9c0-0.7-0.2-1.2-0.6-1.5c-0.4-0.3-0.9-0.5-1.6-0.5c-0.5,0-1,0.1-1.4,0.3c-0.5,0.2-0.8,0.5-1.1,0.8
		l-1-1.1c0.4-0.4,1-0.8,1.6-1c0.6-0.2,1.3-0.4,2.1-0.4c0.6,0,1.2,0.1,1.7,0.3c0.5,0.2,0.9,0.4,1.2,0.8c0.3,0.3,0.5,0.7,0.7,1.1
		c0.2,0.4,0.2,0.9,0.2,1.4v4c0,0.3,0,0.6,0,1c0,0.3,0.1,0.6,0.1,0.8h-1.6c-0.1-0.4-0.2-0.9-0.2-1.3h-0.1c-0.3,0.5-0.8,0.9-1.3,1.1
		c-0.5,0.3-1.1,0.4-1.8,0.4c-0.4,0-0.7,0-1.1-0.1c-0.4-0.1-0.7-0.3-1.1-0.5c-0.3-0.2-0.6-0.5-0.8-0.9c-0.2-0.4-0.3-0.8-0.3-1.3
		c0-0.7,0.2-1.2,0.6-1.6c0.4-0.4,0.8-0.7,1.4-0.9c0.6-0.2,1.3-0.3,2-0.4c0.8-0.1,1.5-0.1,2.3-0.1V92.9z M258.9,94.5
		c-0.4,0-0.9,0-1.4,0.1c-0.5,0-0.9,0.1-1.3,0.2c-0.4,0.1-0.7,0.3-1,0.5c-0.3,0.2-0.4,0.5-0.4,0.9c0,0.3,0.1,0.5,0.2,0.7
		c0.1,0.2,0.3,0.3,0.4,0.4c0.2,0.1,0.4,0.2,0.6,0.2c0.2,0,0.4,0.1,0.7,0.1c0.8,0,1.5-0.2,1.9-0.8c0.5-0.5,0.7-1.1,0.7-1.9v-0.5
		H258.9z"/>
	<path class="st2" d="M265.1,89.7c0,0.2,0,0.5,0.1,0.8c0,0.3,0,0.5,0,0.7h0.1c0.1-0.2,0.3-0.5,0.5-0.7c0.2-0.2,0.4-0.4,0.7-0.6
		c0.3-0.2,0.5-0.3,0.8-0.4c0.3-0.1,0.6-0.1,1-0.1c0.6,0,1.1,0.1,1.5,0.3c0.4,0.2,0.8,0.5,1,0.8c0.3,0.3,0.5,0.7,0.6,1.2
		c0.1,0.4,0.2,0.9,0.2,1.4v5.6h-1.8v-5c0-0.4,0-0.7-0.1-1.1c-0.1-0.3-0.2-0.6-0.3-0.9c-0.2-0.3-0.4-0.5-0.6-0.6
		c-0.3-0.2-0.6-0.2-1-0.2c-0.7,0-1.3,0.3-1.8,0.8c-0.4,0.5-0.7,1.3-0.7,2.2v4.8h-1.8v-7.1c0-0.2,0-0.6,0-0.9c0-0.4,0-0.7-0.1-1
		H265.1z"/>
	<path class="st2" d="M281.3,97.3c-0.3,0.5-0.8,1-1.4,1.3c-0.6,0.3-1.2,0.4-1.9,0.4c-0.7,0-1.3-0.1-1.9-0.4c-0.6-0.2-1-0.6-1.4-1
		c-0.4-0.4-0.7-0.9-0.9-1.5c-0.2-0.6-0.3-1.2-0.3-1.9c0-0.7,0.1-1.3,0.3-1.9c0.2-0.6,0.5-1.1,0.9-1.5c0.4-0.4,0.9-0.8,1.4-1
		c0.6-0.2,1.2-0.4,1.9-0.4c0.7,0,1.4,0.2,1.9,0.5c0.5,0.3,1,0.7,1.3,1.1h0v-6.7h1.8v14.4h-1.7L281.3,97.3L281.3,97.3z M275.3,94.2
		c0,0.4,0.1,0.8,0.2,1.2c0.1,0.4,0.3,0.7,0.6,1.1c0.3,0.3,0.6,0.5,0.9,0.7c0.4,0.2,0.8,0.3,1.3,0.3c0.5,0,0.9-0.1,1.3-0.3
		c0.4-0.2,0.7-0.4,1-0.7c0.3-0.3,0.5-0.6,0.6-1c0.1-0.4,0.2-0.8,0.2-1.2c0-0.4-0.1-0.8-0.2-1.2c-0.1-0.4-0.4-0.7-0.6-1
		c-0.3-0.3-0.6-0.5-1-0.7c-0.4-0.2-0.8-0.3-1.3-0.3c-0.5,0-0.9,0.1-1.3,0.3c-0.4,0.2-0.7,0.4-0.9,0.7c-0.3,0.3-0.4,0.7-0.6,1
		C275.4,93.4,275.3,93.8,275.3,94.2"/>
	<path class="st2" d="M287.7,86.5c0,0.3-0.1,0.6-0.4,0.8c-0.2,0.2-0.5,0.3-0.8,0.3c-0.3,0-0.6-0.1-0.8-0.3c-0.2-0.2-0.3-0.5-0.3-0.8
		c0-0.3,0.1-0.6,0.3-0.8c0.2-0.2,0.5-0.3,0.8-0.3c0.3,0,0.6,0.1,0.8,0.3C287.6,85.8,287.7,86.1,287.7,86.5 M287.4,98.8h-1.8v-9.1
		h1.8V98.8z"/>
	<path class="st2" d="M291.6,89.7c0,0.2,0,0.5,0.1,0.8c0,0.3,0,0.5,0,0.7h0.1c0.1-0.2,0.3-0.5,0.5-0.7c0.2-0.2,0.4-0.4,0.7-0.6
		c0.3-0.2,0.5-0.3,0.8-0.4c0.3-0.1,0.6-0.1,1-0.1c0.6,0,1.1,0.1,1.5,0.3c0.4,0.2,0.8,0.5,1,0.8c0.3,0.3,0.5,0.7,0.6,1.2
		c0.1,0.4,0.2,0.9,0.2,1.4v5.6h-1.8v-5c0-0.4,0-0.7-0.1-1.1c-0.1-0.3-0.2-0.6-0.3-0.9c-0.2-0.3-0.4-0.5-0.6-0.6
		c-0.3-0.2-0.6-0.2-1-0.2c-0.7,0-1.3,0.3-1.7,0.8c-0.5,0.5-0.7,1.3-0.7,2.2v4.8h-1.8v-7.1c0-0.2,0-0.6,0-0.9c0-0.4,0-0.7-0.1-1
		H291.6z"/>
	<path class="st2" d="M301.2,100.3c0.4,0.4,0.9,0.8,1.5,1.1c0.6,0.3,1.2,0.4,1.8,0.4c0.6,0,1.1-0.1,1.5-0.3c0.4-0.2,0.7-0.4,1-0.7
		c0.2-0.3,0.4-0.6,0.5-1.1c0.1-0.4,0.2-0.8,0.2-1.3v-1.2h0c-0.3,0.5-0.8,0.9-1.4,1.2c-0.6,0.3-1.2,0.4-1.8,0.4
		c-0.7,0-1.3-0.1-1.9-0.4c-0.6-0.2-1-0.6-1.4-1c-0.4-0.4-0.7-0.9-0.9-1.5c-0.2-0.6-0.3-1.2-0.3-1.8c0-0.6,0.1-1.3,0.3-1.8
		c0.2-0.6,0.5-1.1,0.9-1.5c0.4-0.4,0.9-0.8,1.4-1c0.6-0.2,1.2-0.4,1.9-0.4c0.6,0,1.3,0.1,1.9,0.4c0.6,0.3,1.1,0.7,1.4,1.3h0v-1.5
		h1.7v8.6c0,0.7-0.1,1.3-0.2,1.9c-0.2,0.6-0.4,1.1-0.8,1.6c-0.4,0.5-0.9,0.8-1.5,1.1c-0.6,0.3-1.4,0.4-2.4,0.4
		c-0.8,0-1.6-0.1-2.4-0.4c-0.8-0.3-1.5-0.7-2.1-1.2L301.2,100.3z M301.7,94.1c0,0.4,0.1,0.8,0.2,1.2c0.1,0.4,0.3,0.7,0.6,1
		c0.3,0.3,0.6,0.5,0.9,0.7c0.4,0.2,0.8,0.3,1.3,0.3c0.5,0,0.9-0.1,1.3-0.2c0.4-0.2,0.7-0.4,1-0.7c0.3-0.3,0.5-0.6,0.6-1
		c0.1-0.4,0.2-0.8,0.2-1.2c0-0.4-0.1-0.8-0.2-1.2c-0.1-0.4-0.4-0.7-0.6-1c-0.3-0.3-0.6-0.5-1-0.7c-0.4-0.2-0.8-0.3-1.3-0.3
		c-0.5,0-0.9,0.1-1.3,0.3c-0.4,0.2-0.7,0.4-0.9,0.7c-0.3,0.3-0.5,0.6-0.6,1C301.8,93.3,301.7,93.7,301.7,94.1"/>
	<polygon class="st2" points="317.2,89.7 319.3,96.6 319.3,96.6 321.5,89.7 323.4,89.7 325.5,96.6 325.6,96.6 327.6,89.7 
		329.5,89.7 326.5,98.8 324.7,98.8 322.4,92 322.4,92 320.2,98.8 318.3,98.8 315.3,89.7 	"/>
	<path class="st2" d="M333.2,86.5c0,0.3-0.1,0.6-0.4,0.8c-0.2,0.2-0.5,0.3-0.8,0.3c-0.3,0-0.6-0.1-0.8-0.3c-0.2-0.2-0.3-0.5-0.3-0.8
		c0-0.3,0.1-0.6,0.3-0.8c0.2-0.2,0.5-0.3,0.8-0.3c0.3,0,0.6,0.1,0.8,0.3C333.1,85.8,333.2,86.1,333.2,86.5 M332.9,98.8h-1.8v-9.1
		h1.8V98.8z"/>
	<path class="st2" d="M340.3,91.2h-2.4v4.7c0,0.5,0.1,0.9,0.3,1.2c0.2,0.2,0.5,0.4,1,0.4c0.2,0,0.3,0,0.5-0.1c0.2,0,0.4-0.1,0.5-0.2
		l0.1,1.5c-0.2,0.1-0.5,0.1-0.7,0.2c-0.3,0-0.5,0.1-0.8,0.1c-0.9,0-1.5-0.2-2-0.7c-0.5-0.5-0.7-1.2-0.7-2.1v-4.9h-1.7v-1.5h1.7v-2.6
		h1.8v2.6h2.4V91.2z"/>
	<path class="st2" d="M344.1,91.1c0.2-0.4,0.6-0.8,1.1-1.1c0.5-0.3,1.1-0.5,1.8-0.5c0.6,0,1.1,0.1,1.5,0.3c0.4,0.2,0.8,0.5,1.1,0.8
		c0.3,0.3,0.5,0.7,0.6,1.2c0.1,0.4,0.2,0.9,0.2,1.4v5.6h-1.8v-5c0-0.4,0-0.7-0.1-1.1c-0.1-0.3-0.2-0.6-0.3-0.9
		c-0.2-0.3-0.4-0.5-0.6-0.6c-0.3-0.2-0.6-0.2-1-0.2c-0.7,0-1.3,0.3-1.8,0.8c-0.5,0.5-0.7,1.3-0.7,2.2v4.8h-1.8V84.3h1.8L344.1,91.1
		L344.1,91.1z"/>
	<path class="st2" d="M361.9,91.2h-2.4v4.7c0,0.5,0.1,0.9,0.3,1.2c0.2,0.2,0.5,0.4,1,0.4c0.2,0,0.3,0,0.5-0.1c0.2,0,0.4-0.1,0.5-0.2
		l0.1,1.5c-0.2,0.1-0.5,0.1-0.7,0.2c-0.3,0-0.5,0.1-0.8,0.1c-0.9,0-1.5-0.2-2-0.7c-0.5-0.5-0.7-1.2-0.7-2.1v-4.9h-1.7v-1.5h1.7v-2.6
		h1.8v2.6h2.4V91.2z"/>
	<path class="st2" d="M365.7,91.1c0.2-0.4,0.6-0.8,1.1-1.1c0.5-0.3,1.1-0.5,1.8-0.5c0.6,0,1.1,0.1,1.5,0.3c0.4,0.2,0.8,0.5,1.1,0.8
		c0.3,0.3,0.5,0.7,0.6,1.2c0.1,0.4,0.2,0.9,0.2,1.4v5.6h-1.8v-5c0-0.4,0-0.7-0.1-1.1c-0.1-0.3-0.2-0.6-0.3-0.9
		c-0.2-0.3-0.4-0.5-0.6-0.6c-0.3-0.2-0.6-0.2-1-0.2c-0.7,0-1.3,0.3-1.8,0.8c-0.5,0.5-0.7,1.3-0.7,2.2v4.8h-1.8V84.3h1.8L365.7,91.1
		L365.7,91.1z"/>
	<path class="st2" d="M382.9,94.2v0.3c0,0.1,0,0.2,0,0.3h-7.2c0,0.4,0.1,0.7,0.3,1.1c0.2,0.3,0.4,0.6,0.6,0.9
		c0.3,0.2,0.6,0.4,0.9,0.6c0.3,0.1,0.7,0.2,1.1,0.2c0.6,0,1.1-0.1,1.6-0.4c0.4-0.3,0.8-0.6,1.1-1l1.3,1c-0.5,0.6-1.1,1.1-1.7,1.4
		c-0.7,0.3-1.4,0.5-2.2,0.5c-0.7,0-1.3-0.1-1.9-0.3c-0.6-0.2-1.1-0.5-1.5-1c-0.4-0.4-0.8-0.9-1-1.5c-0.2-0.6-0.4-1.2-0.4-1.9
		c0-0.7,0.1-1.3,0.4-1.9c0.2-0.6,0.6-1.1,1-1.5c0.4-0.4,0.9-0.7,1.5-1c0.6-0.2,1.2-0.4,1.9-0.4c0.7,0,1.3,0.1,1.8,0.3
		c0.5,0.2,1,0.5,1.4,0.9c0.4,0.4,0.7,0.9,0.9,1.5C382.8,92.8,382.9,93.4,382.9,94.2 M381,93.4c0-0.4-0.1-0.7-0.2-1
		c-0.1-0.3-0.3-0.6-0.5-0.8c-0.2-0.2-0.5-0.4-0.8-0.5c-0.3-0.1-0.7-0.2-1.1-0.2c-0.4,0-0.7,0.1-1.1,0.2c-0.3,0.1-0.6,0.3-0.9,0.5
		c-0.2,0.2-0.5,0.5-0.6,0.8c-0.2,0.3-0.2,0.6-0.3,1H381z"/>
	<path class="st2" d="M401.2,96.7c-0.5,0.7-1.2,1.3-2.1,1.8c-0.9,0.5-1.9,0.7-3.1,0.7c-1,0-2-0.2-2.9-0.5c-0.9-0.3-1.6-0.8-2.3-1.5
		c-0.6-0.6-1.1-1.4-1.5-2.2c-0.4-0.9-0.5-1.8-0.5-2.9c0-1.1,0.2-2,0.5-2.9c0.4-0.9,0.9-1.6,1.5-2.2c0.6-0.6,1.4-1.1,2.3-1.4
		c0.9-0.3,1.8-0.5,2.9-0.5c0.5,0,0.9,0,1.4,0.1c0.5,0.1,0.9,0.2,1.4,0.4c0.4,0.2,0.8,0.4,1.2,0.7c0.4,0.3,0.7,0.6,0.9,0.9l-1.5,1.1
		c-0.3-0.5-0.8-0.8-1.4-1.1c-0.6-0.3-1.3-0.4-2-0.4c-0.8,0-1.5,0.1-2.1,0.4c-0.6,0.3-1.2,0.7-1.6,1.2c-0.4,0.5-0.8,1.1-1,1.7
		c-0.2,0.7-0.4,1.4-0.4,2.1c0,0.8,0.1,1.5,0.4,2.1c0.2,0.7,0.6,1.2,1,1.7c0.4,0.5,1,0.9,1.6,1.2c0.6,0.3,1.3,0.4,2.1,0.4
		c0.8,0,1.5-0.2,2.1-0.5c0.6-0.3,1.1-0.7,1.5-1.3L401.2,96.7z"/>
	<path class="st2" d="M408.9,92.9c0-0.7-0.2-1.2-0.6-1.5c-0.4-0.3-0.9-0.5-1.6-0.5c-0.5,0-1,0.1-1.4,0.3c-0.5,0.2-0.8,0.5-1.1,0.8
		l-1-1.1c0.4-0.4,1-0.8,1.6-1c0.6-0.2,1.3-0.4,2.1-0.4c0.7,0,1.2,0.1,1.7,0.3c0.5,0.2,0.9,0.4,1.2,0.8c0.3,0.3,0.5,0.7,0.7,1.1
		c0.2,0.4,0.2,0.9,0.2,1.4v4c0,0.3,0,0.6,0,1c0,0.3,0,0.6,0.1,0.8h-1.6c-0.1-0.4-0.2-0.9-0.2-1.3h-0.1c-0.3,0.5-0.7,0.9-1.2,1.1
		c-0.5,0.3-1.1,0.4-1.8,0.4c-0.4,0-0.7,0-1.1-0.1c-0.4-0.1-0.7-0.3-1.1-0.5c-0.3-0.2-0.6-0.5-0.8-0.9c-0.2-0.4-0.3-0.8-0.3-1.3
		c0-0.7,0.2-1.2,0.6-1.6c0.4-0.4,0.9-0.7,1.5-0.9c0.6-0.2,1.3-0.3,2-0.4c0.7-0.1,1.5-0.1,2.3-0.1V92.9z M408.5,94.5
		c-0.4,0-0.9,0-1.4,0.1c-0.5,0-0.9,0.1-1.3,0.2c-0.4,0.1-0.7,0.3-1,0.5c-0.3,0.2-0.4,0.5-0.4,0.9c0,0.3,0.1,0.5,0.2,0.7
		c0.1,0.2,0.3,0.3,0.4,0.4c0.2,0.1,0.4,0.2,0.6,0.2c0.2,0,0.4,0.1,0.7,0.1c0.8,0,1.5-0.2,1.9-0.8c0.5-0.5,0.7-1.1,0.7-1.9v-0.5
		H408.5z"/>
	<path class="st2" d="M413,90.7c0-0.4,0-0.7-0.1-1h1.7c0,0.2,0,0.5,0.1,0.8c0,0.3,0,0.5,0,0.7h0.1c0.3-0.5,0.6-1,1.1-1.3
		c0.5-0.3,1-0.5,1.7-0.5c0.3,0,0.5,0,0.7,0.1l-0.1,1.7c-0.3-0.1-0.5-0.1-0.8-0.1c-0.4,0-0.8,0.1-1.1,0.2c-0.3,0.2-0.6,0.4-0.8,0.6
		c-0.2,0.3-0.4,0.6-0.5,0.9c-0.1,0.3-0.2,0.7-0.2,1.1v4.8h-1.8v-7.1C413.1,91.4,413.1,91.1,413,90.7"/>
	<path class="st2" d="M427.9,94.2v0.3c0,0.1,0,0.2,0,0.3h-7.2c0,0.4,0.1,0.7,0.3,1.1c0.2,0.3,0.4,0.6,0.6,0.9
		c0.3,0.2,0.6,0.4,0.9,0.6c0.3,0.1,0.7,0.2,1.1,0.2c0.6,0,1.1-0.1,1.6-0.4c0.4-0.3,0.8-0.6,1-1l1.3,1c-0.5,0.6-1.1,1.1-1.7,1.4
		c-0.7,0.3-1.4,0.5-2.2,0.5c-0.7,0-1.3-0.1-1.9-0.3c-0.6-0.2-1.1-0.5-1.5-1c-0.4-0.4-0.8-0.9-1-1.5c-0.2-0.6-0.4-1.2-0.4-1.9
		c0-0.7,0.1-1.3,0.4-1.9c0.2-0.6,0.6-1.1,1-1.5c0.4-0.4,0.9-0.7,1.5-1c0.6-0.2,1.2-0.4,1.9-0.4c0.7,0,1.3,0.1,1.8,0.3
		c0.5,0.2,1,0.5,1.4,0.9c0.4,0.4,0.7,0.9,0.9,1.5C427.8,92.8,427.9,93.4,427.9,94.2 M426.1,93.4c0-0.4-0.1-0.7-0.2-1
		c-0.1-0.3-0.3-0.6-0.5-0.8c-0.2-0.2-0.5-0.4-0.8-0.5c-0.3-0.1-0.7-0.2-1.1-0.2c-0.4,0-0.7,0.1-1.1,0.2c-0.3,0.1-0.6,0.3-0.9,0.5
		c-0.2,0.2-0.5,0.5-0.6,0.8c-0.2,0.3-0.2,0.6-0.3,1H426.1z"/>
	<path class="st2" d="M430.9,100.3c0.4,0.4,0.9,0.8,1.5,1.1c0.6,0.3,1.2,0.4,1.8,0.4c0.6,0,1.1-0.1,1.5-0.3c0.4-0.2,0.7-0.4,1-0.7
		c0.2-0.3,0.4-0.6,0.5-1.1c0.1-0.4,0.2-0.8,0.2-1.3v-1.2h0c-0.3,0.5-0.8,0.9-1.4,1.2c-0.6,0.3-1.2,0.4-1.8,0.4
		c-0.7,0-1.3-0.1-1.9-0.4c-0.6-0.2-1-0.6-1.4-1c-0.4-0.4-0.7-0.9-0.9-1.5c-0.2-0.6-0.3-1.2-0.3-1.8c0-0.6,0.1-1.3,0.3-1.8
		c0.2-0.6,0.5-1.1,0.9-1.5c0.4-0.4,0.9-0.8,1.4-1c0.6-0.2,1.2-0.4,1.9-0.4c0.6,0,1.3,0.1,1.9,0.4c0.6,0.3,1.1,0.7,1.4,1.3h0v-1.5
		h1.7v8.6c0,0.7-0.1,1.3-0.2,1.9c-0.2,0.6-0.4,1.1-0.8,1.6c-0.4,0.5-0.9,0.8-1.5,1.1c-0.6,0.3-1.4,0.4-2.4,0.4
		c-0.8,0-1.6-0.1-2.4-0.4c-0.8-0.3-1.5-0.7-2.1-1.2L430.9,100.3z M431.4,94.1c0,0.4,0.1,0.8,0.2,1.2c0.1,0.4,0.3,0.7,0.6,1
		c0.3,0.3,0.6,0.5,0.9,0.7c0.4,0.2,0.8,0.3,1.3,0.3c0.5,0,0.9-0.1,1.3-0.2c0.4-0.2,0.7-0.4,1-0.7c0.3-0.3,0.5-0.6,0.6-1
		c0.1-0.4,0.2-0.8,0.2-1.2c0-0.4-0.1-0.8-0.2-1.2c-0.1-0.4-0.4-0.7-0.6-1c-0.3-0.3-0.6-0.5-1-0.7c-0.4-0.2-0.8-0.3-1.3-0.3
		c-0.5,0-0.9,0.1-1.3,0.3c-0.4,0.2-0.7,0.4-0.9,0.7c-0.3,0.3-0.5,0.6-0.6,1C431.5,93.3,431.4,93.7,431.4,94.1"/>
	<path class="st2" d="M443.8,86.5c0,0.3-0.1,0.6-0.3,0.8c-0.2,0.2-0.5,0.3-0.8,0.3c-0.3,0-0.6-0.1-0.8-0.3c-0.2-0.2-0.3-0.5-0.3-0.8
		c0-0.3,0.1-0.6,0.3-0.8c0.2-0.2,0.5-0.3,0.8-0.3c0.3,0,0.6,0.1,0.8,0.3C443.7,85.8,443.8,86.1,443.8,86.5 M443.5,98.8h-1.8v-9.1
		h1.8V98.8z"/>
	<polygon class="st2" points="450.7,98.8 448.8,98.8 445.1,89.7 447.1,89.7 449.7,96.8 449.8,96.8 452.4,89.7 454.3,89.7 	"/>
	<path class="st2" d="M464,94.2v0.3c0,0.1,0,0.2,0,0.3h-7.2c0,0.4,0.1,0.7,0.3,1.1c0.2,0.3,0.4,0.6,0.6,0.9c0.3,0.2,0.6,0.4,0.9,0.6
		c0.4,0.1,0.7,0.2,1.1,0.2c0.6,0,1.1-0.1,1.6-0.4c0.4-0.3,0.8-0.6,1.1-1l1.3,1c-0.5,0.6-1.1,1.1-1.7,1.4c-0.7,0.3-1.4,0.5-2.2,0.5
		c-0.7,0-1.3-0.1-1.9-0.3c-0.6-0.2-1.1-0.5-1.5-1c-0.4-0.4-0.8-0.9-1-1.5c-0.2-0.6-0.4-1.2-0.4-1.9c0-0.7,0.1-1.3,0.4-1.9
		c0.2-0.6,0.6-1.1,1-1.5c0.4-0.4,0.9-0.7,1.5-1c0.6-0.2,1.2-0.4,1.9-0.4c0.7,0,1.3,0.1,1.8,0.3c0.5,0.2,1,0.5,1.4,0.9
		c0.4,0.4,0.7,0.9,0.9,1.5C463.9,92.8,464,93.4,464,94.2 M462.1,93.4c0-0.4-0.1-0.7-0.2-1c-0.1-0.3-0.3-0.6-0.5-0.8
		c-0.2-0.2-0.5-0.4-0.8-0.5c-0.3-0.1-0.7-0.2-1.1-0.2c-0.4,0-0.7,0.1-1.1,0.2c-0.3,0.1-0.6,0.3-0.9,0.5c-0.2,0.2-0.5,0.5-0.6,0.8
		c-0.2,0.3-0.2,0.6-0.3,1H462.1z"/>
	<path class="st2" d="M465.8,90.7c0-0.4,0-0.7-0.1-1h1.7c0,0.2,0,0.5,0.1,0.8c0,0.3,0,0.5,0,0.7h0.1c0.3-0.5,0.6-1,1.1-1.3
		c0.5-0.3,1-0.5,1.7-0.5c0.3,0,0.5,0,0.7,0.1l-0.1,1.7c-0.3-0.1-0.5-0.1-0.8-0.1c-0.4,0-0.8,0.1-1.1,0.2c-0.3,0.2-0.6,0.4-0.8,0.6
		c-0.2,0.3-0.4,0.6-0.5,0.9c-0.1,0.3-0.2,0.7-0.2,1.1v4.8h-1.8v-7.1C465.9,91.4,465.9,91.1,465.8,90.7"/>
	<polygon class="st2" points="486.8,96.1 486.8,96.1 486.8,85.2 488.7,85.2 488.7,98.8 486.3,98.8 479.2,87.7 479.2,87.7 
		479.2,98.8 477.3,98.8 477.3,85.2 479.7,85.2 	"/>
	<path class="st2" d="M497,92.9c0-0.7-0.2-1.2-0.6-1.5c-0.4-0.3-0.9-0.5-1.6-0.5c-0.5,0-1,0.1-1.4,0.3c-0.5,0.2-0.8,0.5-1.1,0.8
		l-1-1.1c0.4-0.4,1-0.8,1.6-1c0.6-0.2,1.3-0.4,2.1-0.4c0.7,0,1.2,0.1,1.7,0.3c0.5,0.2,0.9,0.4,1.2,0.8c0.3,0.3,0.5,0.7,0.7,1.1
		c0.2,0.4,0.2,0.9,0.2,1.4v4c0,0.3,0,0.6,0,1c0,0.3,0.1,0.6,0.1,0.8h-1.6c-0.1-0.4-0.2-0.9-0.2-1.3H497c-0.3,0.5-0.7,0.9-1.2,1.1
		c-0.5,0.3-1.1,0.4-1.8,0.4c-0.4,0-0.7,0-1.1-0.1c-0.4-0.1-0.7-0.3-1.1-0.5c-0.3-0.2-0.6-0.5-0.8-0.9c-0.2-0.4-0.3-0.8-0.3-1.3
		c0-0.7,0.2-1.2,0.6-1.6c0.4-0.4,0.8-0.7,1.5-0.9c0.6-0.2,1.3-0.3,2-0.4c0.8-0.1,1.5-0.1,2.3-0.1V92.9z M496.5,94.5
		c-0.4,0-0.9,0-1.4,0.1c-0.5,0-0.9,0.1-1.3,0.2c-0.4,0.1-0.7,0.3-1,0.5c-0.3,0.2-0.4,0.5-0.4,0.9c0,0.3,0.1,0.5,0.2,0.7
		c0.1,0.2,0.3,0.3,0.4,0.4c0.2,0.1,0.4,0.2,0.6,0.2c0.2,0,0.4,0.1,0.7,0.1c0.8,0,1.5-0.2,1.9-0.8c0.5-0.5,0.7-1.1,0.7-1.9v-0.5
		H496.5z"/>
	<path class="st2" d="M505.7,91.2h-2.4v4.7c0,0.5,0.1,0.9,0.3,1.2c0.2,0.2,0.5,0.4,1,0.4c0.2,0,0.3,0,0.5-0.1c0.2,0,0.4-0.1,0.5-0.2
		l0.1,1.5c-0.2,0.1-0.5,0.1-0.7,0.2c-0.3,0-0.5,0.1-0.8,0.1c-0.9,0-1.5-0.2-2-0.7c-0.4-0.5-0.7-1.2-0.7-2.1v-4.9h-1.7v-1.5h1.7v-2.6
		h1.8v2.6h2.4V91.2z"/>
	<path class="st2" d="M509.9,86.5c0,0.3-0.1,0.6-0.3,0.8c-0.2,0.2-0.5,0.3-0.8,0.3c-0.3,0-0.6-0.1-0.8-0.3c-0.2-0.2-0.3-0.5-0.3-0.8
		c0-0.3,0.1-0.6,0.3-0.8c0.2-0.2,0.5-0.3,0.8-0.3c0.3,0,0.6,0.1,0.8,0.3C509.8,85.8,509.9,86.1,509.9,86.5 M509.6,98.8h-1.8v-9.1
		h1.8V98.8z"/>
	<path class="st2" d="M521.3,94.2c0,0.7-0.1,1.3-0.4,1.9c-0.2,0.6-0.6,1.1-1,1.5c-0.4,0.4-1,0.8-1.6,1c-0.6,0.2-1.2,0.4-1.9,0.4
		c-0.7,0-1.3-0.1-1.9-0.4c-0.6-0.2-1.1-0.6-1.5-1c-0.4-0.4-0.8-0.9-1-1.5c-0.2-0.6-0.4-1.2-0.4-1.9c0-0.7,0.1-1.3,0.4-1.9
		c0.2-0.6,0.6-1.1,1-1.5c0.4-0.4,0.9-0.7,1.5-1c0.6-0.2,1.2-0.4,1.9-0.4c0.7,0,1.3,0.1,1.9,0.4c0.6,0.2,1.1,0.6,1.6,1
		c0.4,0.4,0.8,0.9,1,1.5C521.2,92.9,521.3,93.5,521.3,94.2 M519.4,94.2c0-0.4-0.1-0.8-0.2-1.2c-0.1-0.4-0.3-0.7-0.6-1
		c-0.3-0.3-0.6-0.5-0.9-0.7c-0.4-0.2-0.8-0.3-1.3-0.3c-0.5,0-0.9,0.1-1.3,0.3c-0.4,0.2-0.7,0.4-1,0.7c-0.3,0.3-0.4,0.6-0.6,1
		c-0.1,0.4-0.2,0.8-0.2,1.2c0,0.4,0.1,0.8,0.2,1.2c0.1,0.4,0.3,0.7,0.6,1c0.3,0.3,0.6,0.5,1,0.7c0.4,0.2,0.8,0.3,1.3,0.3
		c0.5,0,0.9-0.1,1.3-0.3c0.4-0.2,0.7-0.4,0.9-0.7c0.3-0.3,0.5-0.7,0.6-1C519.4,95.1,519.4,94.7,519.4,94.2"/>
	<path class="st2" d="M524.8,89.7c0,0.2,0,0.5,0.1,0.8c0,0.3,0,0.5,0,0.7h0.1c0.1-0.2,0.3-0.5,0.5-0.7c0.2-0.2,0.4-0.4,0.7-0.6
		c0.3-0.2,0.5-0.3,0.8-0.4c0.3-0.1,0.6-0.1,1-0.1c0.6,0,1.1,0.1,1.5,0.3c0.4,0.2,0.8,0.5,1.1,0.8c0.3,0.3,0.5,0.7,0.6,1.2
		c0.1,0.4,0.2,0.9,0.2,1.4v5.6h-1.8v-5c0-0.4,0-0.7-0.1-1.1c-0.1-0.3-0.2-0.6-0.3-0.9c-0.2-0.3-0.4-0.5-0.6-0.6
		c-0.3-0.2-0.6-0.2-1-0.2c-0.7,0-1.3,0.3-1.8,0.8c-0.5,0.5-0.7,1.3-0.7,2.2v4.8h-1.8v-7.1c0-0.2,0-0.6,0-0.9c0-0.4,0-0.7-0.1-1
		H524.8z"/>
	<path class="st2" d="M535,85.7h-1.4v3.8h-0.9v-3.8h-1.4v-0.8h3.8V85.7z M541.1,89.5h-0.9v-3.4h0l-1.3,3.4h-0.6l-1.3-3.4h0v3.4H536
		v-4.6h1.3l1.3,3.2l1.3-3.2h1.3V89.5z"/>
</g>
</svg>
