<svg xmlns="http://www.w3.org/2000/svg" viewBox="0 0 345.8 218.7"><style type="text/css">  
	.st0{display:none;}
	
		.st1{display:inline;fill:none;stroke:#7DC24A;stroke-width:28.6071;stroke-linecap:round;stroke-linejoin:round;stroke-dasharray:0,152.5547;}
	.st2{fill:none;stroke:#BBC6C3;stroke-width:6.5;stroke-linecap:round;stroke-linejoin:round;stroke-miterlimit:10;}
	.st3{fill:none;}
	
		.st4{fill:none;stroke:#BCC6C3;stroke-width:6;stroke-linecap:round;stroke-linejoin:round;stroke-miterlimit:10;stroke-dasharray:0,12;}
	.st5{fill:#7DC24A;}
	.st6{fill:#FFFFFF;}
</style><circle class="st2" cx="139.6" cy="172.2" r="22.1"/><path class="st2" d="M101.5 213.6c0-12.2 13.7-22.1 25.9-22.1"/><path class="st2" d="M177.7 213c0-12.2-13.7-22.1-25.9-22.1"/><circle class="st2" cx="203.6" cy="172.2" r="22.1"/><path class="st2" d="M180.3 194.9c2.8-1.7 7.3-3.4 11.1-3.4"/><path class="st2" d="M241.7 213c0-12.2-13.7-22.1-25.9-22.1"/><line class="st4" x1="91.5" y1="69.1" x2="128.1" y2="141"/><line class="st4" x1="47.2" y1="168.5" x2="105.1" y2="169.2"/><line class="st4" x1="48.5" y1="99.5" x2="104.9" y2="146.9"/><line class="st4" x1="149.4" y1="73.8" x2="151.5" y2="136.2"/><line class="st4" x1="183.3" y1="24.7" x2="174.7" y2="137.2"/><circle class="st5" cx="46.5" cy="99.5" r="7.8"/><line class="st4" x1="219.5" y1="73.6" x2="197.6" y2="132.2"/><line class="st4" x1="275.7" y1="55.1" x2="219.5" y2="134.5"/><line class="st4" x1="239.4" y1="146" x2="279.7" y2="116.5"/><line class="st4" x1="247.2" y1="168.1" x2="299.1" y2="162.1"/><circle class="st5" cx="279.5" cy="55.3" r="7.8"/><circle class="st5" cx="29.8" cy="165.9" r="7.8"/><circle class="st5" cx="290.3" cy="109.3" r="7.8"/><circle class="st5" cx="312.2" cy="159.2" r="7.8"/><circle class="st5" cx="225.1" cy="59.9" r="7.8"/><circle class="st5" cx="185" cy="9.9" r="7.8"/><circle class="st5" cx="147.3" cy="58.8" r="7.8"/><circle class="st5" cx="87.6" cy="51.8" r="7.8"/><line class="st4" x1="32.8" y1="150.1" x2="42.8" y2="112.5"/><line class="st4" x1="104.8" y1="53.8" x2="135.1" y2="56.6"/><line class="st4" x1="283.5" y1="69.6" x2="288.3" y2="103.6"/><line class="st4" x1="305.3" y1="145.5" x2="293.1" y2="114.3"/><circle class="st6" cx="131.7" cy="25.6" r="7.8"/><circle class="st6" cx="329.8" cy="96.8" r="7.8"/><circle class="st6" cx="15.9" cy="63.1" r="7.8"/><circle class="st6" cx="253.9" cy="19.6" r="7.8"/></svg>