<?xml version="1.0" encoding="utf-8"?>
<!-- Generator: Adobe Illustrator 21.0.0, SVG Export Plug-In . SVG Version: 6.00 Build 0)  -->
<svg version="1.1" id="Layer_1" xmlns="http://www.w3.org/2000/svg" xmlns:xlink="http://www.w3.org/1999/xlink" x="0px" y="0px" viewBox="0 0 27.5 35.6" style="background: #7dc14c;" xml:space="preserve">
<style type="text/css">
	.st0{fill:#fff;opacity: 0.2;}
</style>
<path class="st0" d="M13.6,15.4c1.1-0.9,3.6-3.2,5.9-6.1h1.9c-3.1,4.1-6.8,7.2-7.3,7.6C14,16.9,14,17,13.9,17s-0.2,0.1-0.3,0.1l0,0
	c-0.1,0-0.2,0-0.3-0.1c-0.1,0-0.1-0.1-0.2-0.1c-0.5-0.4-4.2-3.6-7.3-7.6h1.9C10,12.2,12.5,14.5,13.6,15.4z"/>
<path class="st0" d="M13.6,20.2c-1.1,0.9-3.6,3.2-5.9,6.1H5.8c3.1-4.1,6.8-7.2,7.3-7.6c0.1,0,0.1-0.1,0.2-0.1s0.2-0.1,0.3-0.1l0,0
	c0.1,0,0.2,0,0.3,0.1c0.1,0,0.1,0.1,0.2,0.1c0.5,0.4,4.2,3.6,7.3,7.6h-1.9C17.2,23.4,14.6,21.1,13.6,20.2z"/>
</svg>
