<svg xmlns="http://www.w3.org/2000/svg" viewBox="0 0 570 416"><style type="text/css">  
	.st0{fill:none;stroke:#BBC6C3;stroke-width:12;stroke-linecap:round;stroke-linejoin:round;stroke-miterlimit:10;}
	
		.st1{fill:none;stroke:#BCC6C3;stroke-width:7.4552;stroke-linecap:round;stroke-linejoin:round;stroke-miterlimit:10;stroke-dasharray:0,17.0406;}
	.st2{fill:none;stroke:#FFFFFF;stroke-width:12.619;stroke-linecap:round;stroke-linejoin:round;stroke-miterlimit:10;}
	.st3{fill:none;stroke:#7DC24A;stroke-width:18.5357;stroke-linecap:round;stroke-linejoin:round;stroke-dasharray:0,83.8848;}
	.st4{fill:none;stroke:#7DC24A;stroke-width:11.5498;stroke-miterlimit:10;}
</style><circle class="st0" cx="356.3" cy="315.8" r="40.9"/><path class="st0" d="M285.8 392.2c0-22.6 25.3-40.9 47.9-40.9"/><path class="st0" d="M426.6 391.2c0-22.6-25.3-40.9-47.9-40.9"/><line class="st1" x1="162.2" y1="58.9" x2="162.3" y2="115.4"/><line class="st1" x1="235.2" y1="91.7" x2="207.3" y2="115.5"/><line class="st1" x1="254.5" y1="170.6" x2="209.1" y2="153.1"/><line class="st1" x1="202.5" y1="232.8" x2="175.1" y2="187.1"/><line class="st1" x1="122.1" y1="232.9" x2="149" y2="186.8"/><line class="st1" x1="70.1" y1="171.5" x2="117.8" y2="156.4"/><line class="st1" x1="88.6" y1="92.6" x2="116.7" y2="112.7"/><path class="st2" d="M161.2 16.9C88.3 16.9 29 76.1 29 149c0 72.9 59.3 132.2 132.2 132.2 30 0 60.1-11.6 83.6-30.2 3.6-2.9 6.7-1.7 11 0.1l38.6 16.6 -19.5-40.1c-1.8-3.8-3.4-6.5-1.3-10.1 11.8-20.2 19.8-44.9 19.8-68.4C293.4 76.1 234.1 16.9 161.2 16.9"/><path class="st4" d="M203.6 110.8c-5.1-4-11.2-6.1-17.7-6.1 -5.8 0-14.4 1.7-23.5 9.6 -0.1 0.1-0.3 0-0.4 0 -11.4-9.6-27.7-14.1-41.2-3.5 -14.4 11.4-13 29.7-4.5 41.1 17.2 23.1 38.7 41.2 41 43.2 0.5 0.4 1.1 0.8 1.7 1.1 1 0.5 2.1 0.7 3.2 0.7 1.1 0 2.2-0.2 3.2-0.7 0.6-0.3 1.2-0.7 1.6-1.1 2.4-2 23.8-20.1 41.1-43.2C219.5 136.6 214.3 119.3 203.6 110.8"/><circle class="st0" cx="474.5" cy="315.7" r="40.9"/><path class="st0" d="M430.6 356.3c6.8-3.2 14.2-5 21.3-5"/><path class="st0" d="M544.8 391.2c0-22.6-25.3-40.9-47.9-40.9"/></svg>