<?xml version="1.0" encoding="utf-8"?>
<!-- Generator: Adobe Illustrator 21.0.0, SVG Export Plug-In . SVG Version: 6.00 Build 0)  -->
<svg version="1.1" id="Layer_1" xmlns="http://www.w3.org/2000/svg" xmlns:xlink="http://www.w3.org/1999/xlink" x="0px" y="0px"
	 viewBox="0 0 90.5 93" style="enable-background:new 0 0 90.5 93;" xml:space="preserve">
<style type="text/css">
	.st0{fill:#BDC6C3;}
	.st1{fill:#7CC24D;}
</style>
<path class="st0" d="M44.1,87.3c-23,0-41.6-18.7-41.6-41.6c0-23,18.7-41.6,41.6-41.6c23,0,41.6,18.7,41.6,41.6
	c0,6.8-1.7,13.5-4.8,19.5l8.3,17.1c0.6,1.2,0.4,2.7-0.6,3.7s-2.4,1.3-3.7,0.8l-16.7-7.1C61.3,84.7,52.9,87.3,44.1,87.3 M44.1,10.7
	c-19.3,0-35,15.7-35,35s15.7,35,35,35c8,0,15.5-2.6,21.7-7.5c1-0.8,2.2-0.9,3.4-0.4l10.2,4.4l-5.2-10.6c-0.5-1-0.4-2.2,0.1-3.1
	c3.1-5.3,4.8-11.5,4.8-17.7C79.2,26.4,63.4,10.7,44.1,10.7"/>
<path class="st1" d="M61.4,30.8c-2.1-1.7-4.7-2.6-7.4-2.6c-2.4,0-6.1,0.7-9.9,4.1c-4.7-4.1-11.6-6-17.3-1.5
	c-6,4.7-5.4,12.4-1.9,17.2C32.1,57.6,41,65.2,42,66c0.2,0.2,0.5,0.3,0.7,0.5c0.4,0.2,0.9,0.3,1.3,0.3c0.5,0,0.9-0.1,1.3-0.3
	c0.3-0.1,0.5-0.3,0.7-0.4c1-0.8,9.9-8.4,17.1-18C68,41.6,65.9,34.4,61.4,30.8 M41.7,38.7c0.1,0.1,0.1,0.1,0.2,0.2
	c0.3,0.3,0.5,0.5,0.9,0.6c0.8,0.4,1.8,0.4,2.7,0c0.3-0.2,0.6-0.4,0.9-0.6c0.1-0.1,0.1-0.1,0.2-0.2c4.5-5.2,8.8-4.9,11-3.1
	c2.2,1.7,3.3,5.2,0.8,8.6C53.3,51,47.3,56.7,44.2,59.5C41,56.8,35,51.1,29.9,44.3c-2.6-3.5-1.4-6.9,0.7-8.6c0.9-0.7,2.1-1.2,3.5-1.2
	C36.4,34.5,39,35.6,41.7,38.7"/>
</svg>
